Coordinates
version=1
nRows=14
nColumns=36
inDegrees=yes

Units are S.I. units (second, meters, Newtons, ...)
If the header above contains a line with 'inDegrees', this indicates whether rotational values are in degrees (yes) or radians (no).

endheader
time	pelvis_tilt	pelvis_list	pelvis_rotation	pelvis_tx	pelvis_ty	pelvis_tz	hip_flexion_r	hip_adduction_r	hip_rotation_r	knee_angle_r	knee_angle_r_beta	ankle_angle_r	subtalar_angle_r	mtp_angle_r	hip_flexion_l	hip_adduction_l	hip_rotation_l	knee_angle_l	knee_angle_l_beta	ankle_angle_l	subtalar_angle_l	mtp_angle_l	lumbar_extension	lumbar_bending	lumbar_rotation	arm_flex_r	arm_add_r	arm_rot_r	elbow_flex_r	pro_sup_r	arm_flex_l	arm_add_l	arm_rot_l	elbow_flex_l	pro_sup_l
      1.04000000	      1.48981904	      1.24090583	      0.82541007	      1.07712847	      0.95204888	     -0.27886081	     22.82765330	     -0.48190949	     -1.63956911	      8.42740919	      0.14708604	     -0.32133721	    -14.45462434	     -7.28819650	    -13.71980776	      5.53760603	      1.74649964	      3.53070388	      0.06162241	     12.12453302	     -3.23149703	     -7.28819650	     -7.73460745	     -2.30879753	     -8.17298295	    -13.44911424	     -1.08572775	    -24.62270511	     28.84809839	    112.17489437	     17.49504003	     -8.64377953	      2.95462757	     46.74621245	    109.17436744
      1.05000000	      1.43127951	      1.38010930	      1.11814146	      1.08913204	      0.94957868	     -0.27870241	     22.68769217	     -0.55762193	     -1.74142723	      6.13514796	      0.10707853	      0.49825961	    -12.55217360	     -7.29967382	    -14.48438826	      5.57117599	      1.62733365	      3.55195528	      0.06199331	     12.71781816	     -2.56882763	     -7.29967382	     -7.70565087	     -2.50375513	     -8.41398373	    -13.71694773	     -0.93964699	    -25.23920115	     28.88344680	    112.24359496	     17.85285362	     -8.75094663	      3.13337970	     47.60723476	    109.17098242
      1.06000000	      1.35717101	      1.50998693	      1.36323175	      1.10118330	      0.94707878	     -0.27843711	     22.55106021	     -0.57629371	     -1.49084190	      4.12347274	      0.07196818	      0.79686544	    -11.57434296	     -7.30257113	    -15.21941010	      5.60539785	      1.66479184	      3.61103739	      0.06302449	     13.10177179	     -2.46364382	     -7.30257113	     -7.64779535	     -2.68937177	     -8.59901038	    -13.91683827	     -0.90786921	    -25.38970083	     28.73507586	    112.24435844	     18.19389632	     -8.83180519	      3.34213768	     48.26869190	    109.23383182
      1.07000000	      1.38069094	      1.59666054	      1.60541189	      1.11348517	      0.94472776	     -0.27809948	     22.43669172	     -0.57509819	     -1.75129877	      2.77717160	      0.04847079	      1.72003245	     -9.93470720	     -7.31373691	    -16.02151267	      5.54186969	      1.38757807	      3.76237810	      0.06566589	     13.63782490	     -1.64364006	     -7.31373691	     -7.69407236	     -2.81947644	     -8.84448984	    -14.04752443	     -0.84105737	    -25.73873149	     28.60917713	    112.27438873	     18.33346975	     -8.95228076	      3.41117917	     49.18001827	    109.25032535
      1.08000000	      1.22753399	      1.74636300	      1.80281822	      1.12585336	      0.94217134	     -0.27767390	     22.62277487	     -0.59306446	     -1.80077112	      1.97665203	      0.03449909	      1.98557583	     -9.72626272	     -7.31445137	    -16.60426425	      5.56999445	      1.34627777	      3.94710067	      0.06888990	     13.73727072	     -1.63342247	     -7.31445137	     -7.47481221	     -3.03811288	     -8.90500572	    -14.28153588	     -0.82608286	    -25.78589784	     28.47240454	    112.26514741	     18.57788407	     -8.90917117	      3.47228835	     49.53303828	    109.28438724
      1.09000000	      1.37168850	      1.74828440	      1.93924177	      1.13847578	      0.94011205	     -0.27708765	     22.36017699	     -0.43552083	     -1.61000716	      1.42376450	      0.02484938	      2.87395430	     -8.53264814	     -7.31824784	    -17.47968871	      5.40989188	      1.17002638	      4.24628044	      0.07411157	     14.13039993	     -1.20589329	     -7.31824784	     -7.63813613	     -3.03579093	     -9.15285687	    -14.23107335	     -0.86722377	    -26.00045569	     28.20113890	    112.23027860	     18.48046158	     -9.14250226	      3.69402055	     50.45921403	    109.36831032
      1.10000000	      1.36617551	      1.73108071	      2.13009976	      1.15142426	      0.93798067	     -0.27653032	     22.36057353	     -0.27865851	     -2.05108545	      1.42622656	      0.02489235	      3.93147025	     -7.19253903	     -7.32579132	    -18.07297444	      5.18074693	      0.79746310	      4.77545574	      0.08334743	     14.45180672	     -0.32696603	     -7.32579132	     -7.55074509	     -3.02598530	     -9.39710887	    -14.25551994	     -0.91075691	    -26.15523417	     27.93130065	    112.21398912	     18.24817545	     -9.14625992	      3.40468618	     51.20332408	    109.35558348
      1.11000000	      1.32902627	      1.74269872	      2.23382293	      1.16464326	      0.93594068	     -0.27579397	     22.29418552	     -0.08446226	     -1.92724928	      1.56242453	      0.02726945	      3.97490109	     -7.18008316	     -7.32609658	    -18.71341738	      5.02281395	      0.86895552	      5.15439423	      0.08996115	     14.37137656	     -0.30204072	     -7.32609658	     -7.32927380	     -3.04305026	     -9.41167396	    -14.46214996	     -0.95232176	    -26.18468039	     27.82974125	    112.20564816	     18.12336710	     -9.09267422	      3.41823070	     51.26389657	    109.36101943
      1.12000000	      1.41837521	      1.55855858	      2.35439735	      1.17793424	      0.93423599	     -0.27499139	     22.00642899	      0.33463869	     -1.78029805	      1.86960311	      0.03263073	      4.23435706	     -7.32472999	     -7.32751973	    -19.26857981	      4.61184074	      0.65672051	      5.94950579	      0.10383846	     14.20116544	     -0.26696684	     -7.32751973	     -7.32329344	     -2.81902364	     -9.41885397	    -14.46135421	     -1.05543226	    -26.27619620	     27.57896152	    112.18017726	     17.94500870	     -8.98763208	      3.36807184	     51.63888195	    109.38155560
      1.13000000	      1.46269949	      1.37250423	      2.38456588	      1.19158720	      0.93267370	     -0.27401156	     21.77794270	      0.78361444	     -1.66924805	      2.43036155	      0.04241781	      4.05380148	     -7.52585034	     -7.32900221	    -19.76361681	      4.21308269	      0.40840536	      6.76716940	      0.11810939	     13.93499051	     -0.13174158	     -7.32900221	     -7.17297240	     -2.56574763	     -9.41695614	    -14.45986818	     -1.17828516	    -26.37488715	     27.32035691	    112.15257001	     17.52214580	     -8.89976306	      3.16368445	     51.87342166	    109.37594527
      1.14000000	      1.36183799	      1.11494738	      2.34487614	      1.20547591	      0.93113095	     -0.27273600	     21.65800355	      1.36303672	     -1.27777078	      3.03053466	      0.05289281	      2.85786575	     -8.76798961	     -7.33642489	    -19.91901728	      3.70083540	     -0.35002910	      7.92129463	      0.13825267	     13.92649037	      0.78406956	     -7.33642489	     -6.80372860	     -2.28653705	     -9.71915439	    -14.18631013	     -1.35280311	    -26.39936957	     26.74746393	    112.12209725	     16.57545020	     -8.70099924	      1.84213468	     52.54259590	    109.32702950
      1.15000000	      1.34316206	      0.79161950	      2.25538965	      1.21954653	      0.92996995	     -0.27142315	     21.49195167	      1.99786016	     -1.23010583	      3.83880981	      0.06699987	      1.75345050	     -9.44661538	     -7.34017188	    -20.14832126	      3.16403643	     -0.73378742	      9.07777466	      0.15843706	     13.26677202	      0.80281146	     -7.34017188	     -6.49313157	     -1.88673991	     -9.59566201	    -14.17310858	     -1.53860618	    -26.31079881	     26.52057538	    112.11474414	     15.99993265	     -8.44889743	      1.40681641	     52.44276765	    109.32440404
      1.16000000	      1.26446373	      0.43086176	      2.08471930	      1.23374658	      0.92899479	     -0.26987746	     21.35342342	      2.71389705	     -0.75042469	      4.62483729	      0.08071864	     -0.21842092	    -11.21528217	     -7.34782517	    -20.15601919	      2.58217401	     -1.23938935	     10.52090027	      0.18362435	     12.57186124	      0.99585965	     -7.34782517	     -6.11978535	     -1.44742033	     -9.54431699	    -14.01873769	     -1.75600832	    -26.13587127	     26.09956450	    112.08262617	     15.17319732	     -8.11505482	      0.41338684	     52.42146064	    109.36740039
      1.17000000	      1.27711279	      0.00221379	      1.88138649	      1.24819608	      0.92845358	     -0.26831284	     21.20563315	      3.44171737	     -0.84024604	      5.67778278	      0.09909600	     -1.45010984	    -11.63216766	     -7.35018003	    -20.17581375	      1.93231600	     -1.74831291	     12.09133024	      0.21103352	     11.38570819	      0.88438346	     -7.35018003	     -5.81688823	     -0.90357907	     -9.27105084	    -14.00096539	     -1.95450669	    -26.11705269	     25.92821776	    112.05970077	     14.46446542	     -7.81683371	      0.02213115	     52.04564997	    109.34834485
